<?xml version="1.0" encoding="utf-8"?>
<!-- Generator: Adobe Illustrator 16.0.0, SVG Export Plug-In . SVG Version: 6.00 Build 0)  -->
<!DOCTYPE svg PUBLIC "-//W3C//DTD SVG 1.1//EN" "http://www.w3.org/Graphics/SVG/1.1/DTD/svg11.dtd">
<svg version="1.1" id="Layer_1" xmlns="http://www.w3.org/2000/svg" xmlns:xlink="http://www.w3.org/1999/xlink" x="0px" y="0px"
	 width="792px" height="792px" viewBox="0 0 792 792" enable-background="new 0 0 792 792" xml:space="preserve">
<g>
	<path fill-rule="evenodd" clip-rule="evenodd" d="M369.367,47.778c18.891,29.473,37.378,58.317,56.284,87.814
		c5.996-6.417,11.715-12.535,17.716-18.958c37.285,54.592,74.274,108.752,111.728,163.591c9.1-12.472,17.826-24.434,27.262-37.366
		c3.275,14.393,6.26,27.473,9.229,40.557c2.728,12.017,5.328,24.063,8.225,36.039c0.807,3.332,2.048,6.707,3.793,9.644
		c46.557,78.319,93.208,156.583,139.836,234.858c0.838,1.408,1.598,2.863,2.497,4.483c-1.526,1.111-2.835,2.114-4.193,3.044
		c-49.604,34-99.235,67.958-148.763,102.068c-3.334,2.295-5.92,2.517-9.492,0.778c-6.121-2.978-12.52-7.495-18.787-7.472
		c-6.271,0.023-12.549,4.763-18.782,7.528c-52.054,23.103-104.122,46.175-156.103,69.439c-4.094,1.832-7.199,1.56-11.083-0.402
		c-53.213-26.882-106.522-53.573-159.733-80.458c-3.408-1.722-5.847-1.617-9.067,0.329c-12.092,7.306-24.372,14.299-36.741,21.502
		c-1.391-1.295-2.623-2.384-3.791-3.538c-39.334-38.896-78.625-77.836-118.064-116.623c-2.899-2.852-3.138-4.867-1.446-8.473
		c37.86-80.649,75.574-161.369,113.324-242.071c0.819-1.752,1.729-3.462,2.915-5.828c12.099,15.755,23.724,30.893,35.975,46.846
		C257.987,252.428,313.494,150.438,369.367,47.778z M510.164,278.763c0.292-0.264,0.584-0.526,0.876-0.79
		c-23.81-34.869-47.62-69.736-71.761-105.089c-6.248,6.699-12.213,13.095-18.642,19.988c-16.323-25.462-32.328-50.426-48.808-76.132
		c-43.936,80.749-87.339,160.522-130.743,240.294c0.291,0.198,0.583,0.397,0.875,0.597c42.613-50.584,85.227-101.167,128.261-152.25
		c11.012,22.328,21.641,43.88,32.59,66.08c10.29-12.817,20.037-24.957,29.963-37.322
		C458.858,249.179,484.512,263.971,510.164,278.763z M173.493,375.129c-13.246,28.335-26.057,55.738-38.867,83.142
		c0.379,0.212,0.759,0.425,1.138,0.638c11.759-15.466,23.517-30.932,35.532-46.733c29.862,26.689,59.33,53.026,88.799,79.365
		c0.298-0.271,0.597-0.541,0.896-0.812C232.01,452.441,203.029,414.153,173.493,375.129z"/>
</g>
</svg>
