<?xml version="1.0" encoding="utf-8"?>
<!-- Generator: Adobe Illustrator 16.0.0, SVG Export Plug-In . SVG Version: 6.00 Build 0)  -->
<!DOCTYPE svg PUBLIC "-//W3C//DTD SVG 1.1//EN" "http://www.w3.org/Graphics/SVG/1.1/DTD/svg11.dtd">
<svg version="1.1" id="Layer_1" xmlns="http://www.w3.org/2000/svg" xmlns:xlink="http://www.w3.org/1999/xlink" x="0px" y="0px"
	 width="792px" height="792px" viewBox="0 0 792 792" enable-background="new 0 0 792 792" xml:space="preserve">
<g>
	<path fill-rule="evenodd" clip-rule="evenodd" d="M115.131,432.369c1.688,10.938,2.471,21.478,5.04,31.562
		c6.187,24.276,20.149,42.526,45.479,48.188c21.334,4.771,40.982-1.373,56.13-17.311c12.355-12.999,12.144-29.305,7.607-45.643
		c-3.219-11.588-10.048-21.116-19.098-28.742c-8.641-7.282-17.929-13.806-27.048-20.507c-9.928-7.295-20.293-14.027-29.94-21.671
		c-43.719-34.633-40.199-89.575-16.331-122.736c3.205-4.453,6.568-8.854,10.332-12.832c27.414-28.961,62.184-45.033,100.115-56.057
		c-1.081,1.242-2.154,2.492-3.244,3.725c-16.973,19.2-30.952,40.095-36.612,65.579c-1.005,4.523-1.435,9.214-1.718,13.854
		c-0.935,15.297,5.112,27.703,17.766,35.833c26.202,16.839,54.575,21.773,84.503,11.65c19.936-6.743,29.629-21.485,29.855-42.584
		c0.213-19.914-3.188-39.137-10.546-57.625c-7.144-17.953-8.979-36.375-5.788-55.426c4.52-26.979,18.634-47.362,41.795-61.616
		c18.627-11.465,39.233-17.323,60.606-20.656c34.661-5.405,69.361-4.373,104.09,0.857c-3.114,0-6.233-0.091-9.344,0.024
		c-3.328,0.124-6.716,0.101-9.96,0.738c-9.939,1.952-20.164,3.204-29.663,6.5c-28.679,9.951-44.562,32.176-46.212,62.493
		c-1.391,25.539,5.093,48.892,21.328,68.512c10.981,13.27,23.854,25.027,36.328,36.994c12.13,11.636,25.235,22.271,37.156,34.107
		c9.958,9.888,17.338,21.82,18.538,36.244c1.932,23.212-2.181,44.371-23.216,58.575c-18.57,12.539-23.139,29.451-16.613,53.891
		c4.973,18.628,21.16,29.97,42.878,31.65c25.248,1.954,45.494-9.754,56.594-32.854c6.978-14.522,9.831-30.069,10.314-46
		c1.224-40.297-1.042-80.311-12.325-119.293c-2.85-9.849-7.183-19.267-10.903-29.063c1.223,0.437,2.893,0.941,4.49,1.616
		c31.274,13.205,55.964,34.604,75.668,61.843c33.938,46.919,48.665,99.313,44.378,157.18c-2.792,37.671-9.764,74.291-25.132,108.978
		c-29.847,67.364-81.072,111.501-149.525,136.539c-53.567,19.593-109.241,25.198-165.782,22.736
		c-66.19-2.881-128.536-19.734-185.367-54.634c-34.83-21.39-64.411-48.383-86.253-83.267
		C85.844,562.326,75.457,528.17,75.88,490.993c0.056-4.919,0.861-10.028,2.392-14.697
		C84.655,456.816,98.614,443.589,115.131,432.369z M455.306,489.793c-2.541,2.697-4.573,5.416-7.138,7.475
		c-8.277,6.644-16.203,13.968-25.268,19.336c-16.07,9.515-33.345,7.638-50.248,1.954c-7.471-2.511-11.753-8.358-13.042-16.325
		c-1.849-11.436,0.487-22.273,6.907-31.467c7.394-10.588,15.796-20.582,24.61-30.041c9.867-10.588,20.827-20.149,31.055-30.414
		c10.268-10.305,19.288-21.626,26.089-34.581c5.41-10.306,8.379-21.222,8.063-32.964c-1.144,2.898-1.864,5.92-2.774,8.883
		c-5.001,16.271-14.855,29.414-27.358,40.491c-12.833,11.37-26.209,22.131-39.441,33.044c-12.5,10.312-24.973,20.8-33.741,34.534
		c-4.932,7.727-9.226,16.396-11.423,25.232c-6.992,28.117,6.67,49.416,34.669,55.641c28.549,6.346,54.209,0.83,76.297-18.957
		c1.447-1.297,2.959-2.521,4.583-3.898c17.102,16.472,29.75,35.027,35.594,57.892c7.023,27.481-1.186,49.245-24.3,65.334
		c-6.809,4.739-14.003,9.042-21.399,12.798c-18.663,9.479-38.576,15.494-58.92,20.166c-3.199,0.734-6.386,1.521-9.58,2.284
		c0.092,0.498,0.184,0.995,0.276,1.492c11.848-1.601,23.776-2.76,35.527-4.895c23.573-4.283,46.34-10.994,66.439-24.736
		c25.81-17.648,35.918-41.977,30.609-72.657C505.104,539.06,484.69,511.841,455.306,489.793z"/>
</g>
</svg>
