<?xml version="1.0" encoding="utf-8"?>
<!-- Generator: Adobe Illustrator 16.0.0, SVG Export Plug-In . SVG Version: 6.00 Build 0)  -->
<!DOCTYPE svg PUBLIC "-//W3C//DTD SVG 1.1//EN" "http://www.w3.org/Graphics/SVG/1.1/DTD/svg11.dtd">
<svg version="1.1" id="Layer_1" xmlns="http://www.w3.org/2000/svg" xmlns:xlink="http://www.w3.org/1999/xlink" x="0px" y="0px"
	 width="792px" height="792px" viewBox="0 0 792 792" enable-background="new 0 0 792 792" xml:space="preserve">
<g>
	<path fill-rule="evenodd" clip-rule="evenodd" d="M183.501,216.84c-5.013,14.662-10.923,29.002-14.678,43.886
		c-2.861,11.341-3.891,23.351-4.14,35.097c-0.501,23.671,9.458,43.196,26.24,59.488c12.288,11.928,26.432,21.327,41.139,29.899
		c22.015,12.832,44.533,24.848,66.087,38.404c14.889,9.363,29.268,19.868,42.558,31.383c38.458,33.321,58.912,76.263,64.1,126.541
		c1.565,15.172,1.659,30.496,2.451,46.245c-1.983-0.417-2.548-0.372-2.883-0.628c-24.583-18.86-52.101-32.776-79.224-47.414
		c-21.534-11.621-42.938-23.539-63.863-36.213c-17.999-10.9-34.179-24.304-48.564-40.14c0.752,1.492,1.433,3.026,2.268,4.471
		c11.049,19.098,25.381,35.615,41.858,50.012c21.818,19.064,44.698,36.91,66.695,55.773c16.162,13.86,31.883,28.262,47.311,42.938
		c6.625,6.302,11.637,14.086,14.267,23.175c1.08,3.735,0.548,6.521-1.939,9.58c-18.139,22.313-42.262,33.933-69.814,39.586
		c-28.588,5.867-56.647,3.187-84.433-4.932c-45.733-13.361-86.467-35.54-120.763-68.837
		c-40.728-39.542-64.328-87.908-71.459-143.994c-7.583-59.634-1.752-117.86,23.33-173.076
		c24.413-53.742,63.255-93.729,117.125-118.626C179.405,218.423,181.724,217.57,183.501,216.84z"/>
	<path fill-rule="evenodd" clip-rule="evenodd" d="M583.176,516.949c-26.131,16.9-55.927,21.724-85.848,25.768
		c-24.922,3.368-49.947,5.971-74.928,8.896c-0.293,0.034-0.611-0.141-1.655-0.405c0.556-2.963,1.055-6.005,1.702-9.015
		c7.405-34.4,27.298-59.429,57.625-76.568c24.5-13.846,51.345-21.064,78.417-27.653c27.012-6.574,54.103-12.87,80.935-20.117
		c9.869-2.666,19.469-7,28.552-11.787c30.963-16.322,44.407-42.457,40.455-77.247c-0.618-5.448-1.446-10.871-2.353-17.615
		c2.059,1.859,3.479,2.999,4.734,4.297c20.321,21.017,33.217,46.27,40.391,74.257c17.137,66.852,10.949,131.599-22.395,192.282
		c-37.202,67.708-95.979,100.823-172.93,102.093c-25.687,0.424-50.971-2.278-74.934-12.262
		c-35.143-14.645-56.108-40.588-61.582-78.577c-1.063-7.383-1.154-7.681,5.932-9.904c25.26-7.926,50.618-15.534,75.88-23.449
		c20.212-6.333,40.192-13.402,58.491-24.249c8.622-5.11,16.539-11.411,24.775-17.173
		C584.02,517.996,583.598,517.473,583.176,516.949z"/>
	<path fill-rule="evenodd" clip-rule="evenodd" d="M405.458,275.698c-1.649,15.416,0.591,30.578,5.086,45.274
		c6.914,22.602,14.79,44.908,21.855,67.465c6.554,20.926,11.051,42.174,8.716,64.405c-0.592,5.625-2.412,8.265-8.223,9.55
		c-29.258,6.479-56.691,0.416-82.976-12.034c-35.065-16.608-58.219-44.337-69.561-81.025
		c-16.468-53.271-15.373-106.638,5.107-158.705c18.888-48.021,54.651-80.393,100.352-102.501
		c37.34-18.064,77.077-27.33,118.203-31.11c7.624-0.7,15.297-0.861,22.948-1.252c0.651-0.033,1.311,0.08,3.19,0.211
		c-1.725,1.609-2.79,2.648-3.901,3.634c-13.139,11.662-25.087,24.37-34.641,39.202c-8.791,13.647-14.154,28.253-12.669,44.805
		c0.952,10.608,1.503,21.268,2.914,31.813c2.183,16.312,7.982,31.438,18.398,44.234c15.21,18.684,21.871,40.022,22.249,63.799
		c0.554,34.895-3.59,68.834-19.51,100.499c-6.109,12.151-13.93,23.088-23.718,32.573c-1.289,1.25-2.65,2.426-4.474,4.087
		c-0.515-1.839-0.929-3.009-1.169-4.215c-4.277-21.462-12.884-41.277-23.209-60.399c-7.832-14.508-16.057-28.804-23.916-43.297
		C416.789,314.784,408.447,296.315,405.458,275.698z"/>
</g>
</svg>
