<?xml version="1.0" encoding="utf-8"?>
<!-- Generator: Adobe Illustrator 16.0.0, SVG Export Plug-In . SVG Version: 6.00 Build 0)  -->
<!DOCTYPE svg PUBLIC "-//W3C//DTD SVG 1.1//EN" "http://www.w3.org/Graphics/SVG/1.1/DTD/svg11.dtd">
<svg version="1.1" id="Layer_1" xmlns="http://www.w3.org/2000/svg" xmlns:xlink="http://www.w3.org/1999/xlink" x="0px" y="0px"
	 width="792px" height="792px" viewBox="0 0 792 792" enable-background="new 0 0 792 792" xml:space="preserve">
<g>
	<path fill-rule="evenodd" clip-rule="evenodd" d="M299.74,571.269c-38.725,13.731-76.8,27.232-116.031,41.144
		c14.292-38.627,28.18-76.166,42.286-114.293c-68.431-31.501-136.737-62.944-206.151-94.897
		c69.336-31.782,137.688-63.113,206.587-94.696c-13.879-37.713-27.657-75.149-41.909-113.876
		c40.34,14.372,79.679,28.386,119.476,42.564c31.113-67.577,62.086-134.85,93.646-203.396
		c31.62,68.992,62.773,136.966,94.156,205.439c39.206-14.519,78.161-28.944,118.358-43.829
		c-15.196,39.328-29.973,77.568-45.025,116.527c69.32,30.747,138.504,61.434,208.907,92.66
		c-70.233,31.006-139.437,61.558-209.313,92.405c14.771,38.435,29.479,76.703,44.644,116.163
		c-39.169-14.574-77.266-28.75-115.708-43.055c-32.422,67.855-64.644,135.294-97.43,203.911
		C363.848,705.985,331.921,638.895,299.74,571.269z M393.397,167.761c-27.508,54.561-54.353,107.805-81.671,161.989
		c1.337-0.846,1.804-0.998,2.056-1.32c30.655-38.998,61.308-77.999,91.869-117.072c0.864-1.105,1.391-3.196,0.976-4.468
		C402.502,194.251,398.146,181.688,393.397,167.761z M320.183,486.985c0.167-0.278,0.335-0.556,0.503-0.835
		c-1.388-1.088-2.76-2.197-4.166-3.262c-35.041-26.521-70.391-52.649-104.928-79.812c-9.427-7.413-17.341-10.021-28.422-4.703
		c-8.081,3.878-17.086,5.83-26.858,9.026C211.726,434.312,265.955,460.649,320.183,486.985z M472.519,320.291
		c1.022,1.455,1.156,1.788,1.401,1.974c39.798,30.157,79.589,60.327,119.487,90.351c1.239,0.933,3.777,0.92,5.419,0.411
		c11.438-3.55,22.802-7.338,34.18-11.077c1.137-0.373,2.211-0.933,4.089-1.738C582.097,373.503,527.881,347.175,472.519,320.291z
		 M481.639,479.149c-0.19-0.17-0.38-0.341-0.57-0.511c-0.37,0.32-0.804,0.592-1.102,0.97
		c-30.555,38.87-61.107,77.741-91.597,116.663c-0.826,1.054-1.658,2.879-1.307,3.96c4.199,12.907,8.623,25.743,13.418,39.864
		C427.92,585.682,454.779,532.416,481.639,479.149z"/>
</g>
</svg>
