<?xml version="1.0" encoding="utf-8"?>
<!-- Generator: Adobe Illustrator 16.0.0, SVG Export Plug-In . SVG Version: 6.00 Build 0)  -->
<!DOCTYPE svg PUBLIC "-//W3C//DTD SVG 1.1//EN" "http://www.w3.org/Graphics/SVG/1.1/DTD/svg11.dtd">
<svg version="1.1" id="Layer_1" xmlns="http://www.w3.org/2000/svg" xmlns:xlink="http://www.w3.org/1999/xlink" x="0px" y="0px"
	 width="792px" height="792px" viewBox="0 0 792 792" enable-background="new 0 0 792 792" xml:space="preserve">
<g>
	<path fill-rule="evenodd" clip-rule="evenodd" d="M197.13,664.425c-12.364-11.549-24.843-22.132-36.02-33.948
		c-11.056-11.686-20.797-24.615-31.395-37.335c-8.771,5.396-17.977,11.063-27.185,16.729c-8.553,5.263-14.309,3.906-19.598-4.716
		c-14.548-23.72-29.079-47.451-43.592-71.192c-5.42-8.866-4.05-14.419,4.903-19.958c12.752-7.89,25.516-15.763,38.31-23.585
		c2.108-1.289,3.563-2.328,2.897-5.424c-4.818-22.394-7.081-45.077-7.085-67.985c0-0.648-0.171-1.297-0.389-2.83
		c-5.713,0-11.457,0.007-17.2-0.002c-10.47-0.016-14.273-4.015-13.566-14.297c2.63-38.234,5.271-76.469,7.91-114.703
		c0.597-8.641,4.309-12.081,13.123-12.095c13.332-0.021,26.665,0.084,39.993-0.112c1.801-0.027,4.412-0.99,5.243-2.368
		c10.307-17.09,20.354-34.337,30.815-52.137c-0.451-0.476-1.661-1.813-2.931-3.089c-10.109-10.159-20.255-20.281-30.334-30.468
		c-4.974-5.028-5.284-10.43-1.005-16.085c0.999-1.321,2.211-2.489,3.385-3.667c22.109-22.198,44.224-44.389,66.352-66.567
		c1.291-1.294,2.599-2.615,4.083-3.663c5.454-3.849,10.559-3.456,15.274,1.246c11.684,11.647,23.304,23.358,34.959,35.035
		c1.276,1.278,2.617,2.492,3.965,3.771c6.815-3.698,13.148-7.822,19.999-10.718c17.618-7.449,35.409-14.503,53.27-21.353
		c3.551-1.362,4.886-2.75,4.725-6.627c-0.565-13.65-0.799-27.316-1.038-40.979c-0.196-11.178,5.442-16.877,16.729-17.12
		c29.823-0.643,59.645-1.283,89.467-1.911c12.295-0.259,17.893,5.145,17.921,17.313c0.025,11.498,0.119,22.999-0.064,34.494
		c-0.053,3.363,1.041,4.539,4.382,5.037c29.384,4.378,57.462,13.081,84.101,26.243c3.306,1.634,5.091,1.453,7.326-1.624
		c6.269-8.624,12.881-16.998,19.386-25.449c7.46-9.692,16.021-10.783,25.799-3.156c12.481,9.737,24.882,19.58,37.315,29.378
		c16.884,13.305,33.781,26.593,50.644,39.925c10.888,8.606,11.831,17.092,3.205,27.688c-8.416,10.338-16.708,20.78-25.278,30.989
		c-2.242,2.671-2.213,4.476-0.348,7.349c12.574,19.363,22.725,39.961,30.314,61.769c1.167,3.353,2.874,4.165,6.174,4.123
		c18.828-0.238,37.66-0.27,56.491-0.358c6.796-0.032,8.825,1.459,10.626,7.99c0.483,1.751,0.768,3.591,0.881,5.408
		c2.533,40.747,5.053,81.494,7.479,122.247c0.165,2.787-0.138,5.685-0.736,8.418c-1.469,6.714-3.797,8.444-10.734,8.489
		c-16.498,0.109-32.995,0.196-49.492,0.29c-1.81,0.01-3.618,0.001-5.67,0.001c-1.334,6.765-2.32,13.18-3.895,19.447
		c-2.757,10.979-5.523,21.982-9.006,32.741c-1.498,4.632-0.552,7.079,2.999,10.048c14.955,12.508,29.551,25.443,44.505,37.951
		c4.249,3.555,4.893,7.389,2.707,11.894c-1.437,2.959-3.283,5.819-5.413,8.328c-23.398,27.57-46.882,55.069-70.37,82.563
		c-1.4,1.641-2.918,3.224-4.585,4.586c-6.153,5.029-9.688,4.945-15.739-0.178c-10.278-8.702-20.557-17.406-30.998-26.246
		c-1.01,0.854-1.801,1.426-2.476,2.111c-16.912,17.158-35.427,32.357-55.745,45.305c-2.843,1.812-3.084,3.572-2.286,6.567
		c3.346,12.554,6.262,25.226,9.69,37.755c1.233,4.508,0.012,7.616-3.748,9.698c-3.027,1.677-6.262,3.209-9.595,4.067
		c-35.329,9.102-70.694,18.065-106.061,27.025c-2.25,0.569-4.579,0.983-6.893,1.122c-7.504,0.451-9.768-1.26-11.605-8.478
		c-2.057-8.071-4.291-16.105-6.053-24.241c-0.771-3.565-2.264-4.444-5.789-4.115c-30.935,2.889-61.578,0.856-91.905-5.91
		c-9.284-2.071-9.292-2.074-14.615,6.114c-4.813,7.405-9.586,14.836-14.414,22.23c-3.674,5.626-7.456,6.75-13.559,4.047
		c-1.211-0.537-2.368-1.228-3.481-1.953c-24.013-15.645-48.03-31.284-71.995-47.002c-1.914-1.255-3.713-2.877-5.119-4.677
		c-2.588-3.312-2.982-6.81-0.419-10.582C189.34,676.743,193.367,670.258,197.13,664.425z M632.824,400.295
		c-1.648-13.871-2.556-27.876-5.061-41.59c-20.508-112.306-128.212-178.474-237.543-146.187
		c-112.414,33.197-184.603,154.777-159.99,269.454c24.294,113.194,132.603,175.696,242.78,140.103
		C565.401,592.227,631.7,499.695,632.824,400.295z"/>
	<path fill-rule="evenodd" clip-rule="evenodd" d="M304.304,376.97c0.729-51.556,39.623-105.975,87.692-122.496
		c48.269-16.589,88.469,11.433,88.7,62.449c0.173,38.269-15.977,69.914-42.399,96.646c-15.257,15.436-33.248,26.594-54.652,31.565
		c-40.907,9.501-74.337-14.415-78.587-56.206C304.653,384.958,304.548,380.958,304.304,376.97z"/>
	<path fill-rule="evenodd" clip-rule="evenodd" d="M386.605,572.146c-29.144,0.021-46.69-22.003-41.516-52.114
		c5.641-32.827,38.307-63.17,71.43-66.351c31.438-3.021,51.807,18.216,47.557,49.581
		C459.214,539.153,422.138,572.119,386.605,572.146z"/>
	<path fill-rule="evenodd" clip-rule="evenodd" d="M582.25,464.67c-0.498,3.284-0.784,6.617-1.528,9.846
		c-5.831,25.305-31.804,47.671-57.717,49.807c-23.556,1.939-38.592-14.586-34.388-37.799c4.716-26.038,31.26-50.264,57.518-52.493
		C567.489,432.218,582.075,444.672,582.25,464.67z"/>
</g>
</svg>
