<?xml version="1.0" encoding="utf-8"?>
<!-- Generator: Adobe Illustrator 16.0.0, SVG Export Plug-In . SVG Version: 6.00 Build 0)  -->
<!DOCTYPE svg PUBLIC "-//W3C//DTD SVG 1.1//EN" "http://www.w3.org/Graphics/SVG/1.1/DTD/svg11.dtd">
<svg version="1.1" id="Layer_1" xmlns="http://www.w3.org/2000/svg" xmlns:xlink="http://www.w3.org/1999/xlink" x="0px" y="0px"
	 width="792px" height="792px" viewBox="0 0 792 792" enable-background="new 0 0 792 792" xml:space="preserve">
<g>
	<path fill-rule="evenodd" clip-rule="evenodd" d="M553.523,596.408c0.43,2.566,0.769,4.816,1.187,7.051
		c7.834,41.917,15.683,83.832,23.515,125.749c1.824,9.765-3.713,16.891-13.648,17.035c-13.993,0.203-27.992,0.168-41.986,0.01
		c-8.418-0.095-12.885-4.805-14.494-13.52c-7.928-42.915-16.019-85.799-24.061-128.692c-0.086-0.463-0.296-0.902-1.28-1.367
		c0,1.791-0.04,3.585,0.006,5.376c1.031,40.309,2.091,80.616,3.101,120.925c0.31,12.354-4.588,17.297-17.005,17.329
		c-8.665,0.022-17.33,0.072-25.993-0.017c-10.557-0.108-16.068-5.399-16.361-15.909c-1.18-42.304-2.278-84.61-3.396-126.917
		c-0.058-2.152-0.007-4.309-1.125-6.633c-0.672,3.722-1.378,7.438-2.012,11.166c-7.954,46.803-15.889,93.609-23.854,140.41
		c-1.146,6.739-6.194,11.472-13.094,11.537c-19.16,0.18-38.324,0.232-57.482-0.014c-8.919-0.115-14.458-7.488-12.949-16.363
		c6.926-40.728,13.868-81.451,20.8-122.177c0.164-0.966,0.281-1.94-0.331-3.221c-0.713,1.513-1.475,3.006-2.131,4.545
		c-14.775,34.626-29.556,69.248-44.27,103.899c-1.225,2.884-2.131,5.927-2.931,8.964c-1.62,6.146-6.375,10.542-12.919,10.607
		c-19.325,0.193-38.655,0.173-57.98,0.014c-9.21-0.076-14.878-10.203-11.398-18.089c18.827-42.669,36.834-85.699,55.117-128.607
		c0.711-1.669,1.354-3.367,2.281-5.682c-6.009-0.664-11.586-1.231-17.15-1.905c-21.237-2.572-42.072-6.918-62.178-14.368
		c-50.453-18.696-83.871-53.98-101.608-104.492c-9.52-27.109-13.872-55.185-15.441-83.759c-2.592-47.206,1.507-93.57,17.921-138.301
		c21.566-58.767,59.79-104.23,111.961-138.043c59.707-38.697,125.661-59.318,196.34-64.638
		c35.852-2.699,70.677,4.598,104.885,14.693c46.179,13.627,88.77,34.458,126.427,64.721c59.26,47.626,94.46,109.459,106.765,184.177
		c8.811,53.504,7.992,106.931-5.922,159.649c-7.463,28.279-20.229,53.917-40.902,75.105c-23.81,24.401-53.5,37.482-86.341,44.083
		c-11.57,2.326-23.388,3.425-35.094,5.074C557.033,596.02,555.569,596.166,553.523,596.408z M291.117,513.101
		c26.589-0.049,46.595-5.457,65.033-16.531c59.694-35.852,69.295-115.538,19.708-163.523
		c-41.279-39.945-108.402-42.498-152.599-5.804c-44.975,37.341-51.472,101.117-14.391,145.479
		C231.499,499.798,261.205,512.383,291.117,513.101z M582.921,498.659c3.12-0.443,8.358-0.656,13.297-1.982
		c21.241-5.706,36.188-18.554,41.588-40.283c5.137-20.665-1.479-38.251-17.337-52.116c-21.874-19.125-56.044-18.91-78.137,0.105
		c-20.527,17.668-24.871,46.582-9.895,68.613C543.973,489.966,560.631,497.793,582.921,498.659z"/>
</g>
</svg>
