<?xml version="1.0" encoding="utf-8"?>
<!-- Generator: Adobe Illustrator 16.0.0, SVG Export Plug-In . SVG Version: 6.00 Build 0)  -->
<!DOCTYPE svg PUBLIC "-//W3C//DTD SVG 1.1//EN" "http://www.w3.org/Graphics/SVG/1.1/DTD/svg11.dtd">
<svg version="1.1" id="Layer_1" xmlns="http://www.w3.org/2000/svg" xmlns:xlink="http://www.w3.org/1999/xlink" x="0px" y="0px"
	 width="792px" height="792px" viewBox="0 0 792 792" enable-background="new 0 0 792 792" xml:space="preserve">
<g>
	<path fill-rule="evenodd" clip-rule="evenodd" d="M358.638,62.197c2.642,1.125,4.314,1.707,5.867,2.517
		c142.471,74.33,234.272,187.199,263.013,347.444c7.855,43.803,9.846,88.127,3.543,132.398
		c-13.856,97.332-68.799,159.55-162.347,188.178c-27.866,8.527-56.501,13.549-85.646,13.133
		c-53.085-0.757-102.915-14.234-147.633-43.269c-53.153-34.512-76.94-84.783-75.845-147.525c0.582-33.291,10.287-63.9,27.043-92.462
		c13.397-22.834,30.016-43.222,47.839-62.652c21.287-23.207,43.108-45.928,64.149-69.353c25.167-28.018,47.062-58.344,61.921-93.266
		c14.311-33.635,20.825-68.763,19.625-105.26c-0.77-23.426-7.5-45.222-19.158-65.522C360.381,65.465,359.802,64.342,358.638,62.197z
		 M358.543,353.477c-4.919,19.603-18.187,33.334-32.491,46.275c-7.288,6.594-15.015,12.702-22.276,19.322
		c-14.271,13.012-29.221,25.422-42.357,39.511c-39.909,42.804-50.122,93.361-36.461,149.433
		c3.701,15.188,19.309,24.188,34.495,20.407c17.447-4.343,26.296-22.15,18.965-38.77c-10.314-23.379-15.691-47.398-10.395-72.952
		c4.207-20.292,13.561-38.293,25.68-54.797c11.334-15.436,23.796-30.044,35.113-45.491c8.341-11.384,16.078-23.272,23.246-35.431
		C356.9,372.773,359.037,363.403,358.543,353.477z M308.564,688.23c-0.036,0.113-0.071,0.227-0.107,0.34
		c1.686,0.473,3.355,1.014,5.059,1.405c37.463,8.617,75.251,10.233,113.137,3.832c74.166-12.533,127.041-52.286,154.489-123.335
		c15.643-40.49,19.193-82.833,17.242-125.808c-0.493-10.841-1.648-21.651-2.499-32.477c-0.403,0.008-0.807,0.016-1.21,0.023
		c-0.106,1.571-0.252,3.14-0.312,4.712c-0.488,12.649-0.663,25.317-1.494,37.943c-2.15,32.68-7.194,64.83-17.894,95.957
		c-21.91,63.739-64.134,106.722-128.892,126.901c-33.307,10.379-67.518,13.442-102.181,12.56
		C332.114,689.984,320.344,688.937,308.564,688.23z"/>
</g>
</svg>
