<?xml version="1.0" encoding="utf-8"?>
<!-- Generator: Adobe Illustrator 16.0.0, SVG Export Plug-In . SVG Version: 6.00 Build 0)  -->
<!DOCTYPE svg PUBLIC "-//W3C//DTD SVG 1.1//EN" "http://www.w3.org/Graphics/SVG/1.1/DTD/svg11.dtd">
<svg version="1.1" id="Layer_1" xmlns="http://www.w3.org/2000/svg" xmlns:xlink="http://www.w3.org/1999/xlink" x="0px" y="0px"
	 width="792px" height="792px" viewBox="0 0 792 792" enable-background="new 0 0 792 792" xml:space="preserve">
<g>
	<path fill-rule="evenodd" clip-rule="evenodd" d="M411.912,74.815c50.67,1.029,100.018,8.272,147.279,27.042
		c67.754,26.909,120.068,71.894,154.882,135.956c41.774,76.874,55.382,159.447,40.751,245.328
		c-16.945,99.464-75.033,167.98-167.127,207.701c-53.508,23.078-109.892,30.086-167.765,26.4
		c-35.047-2.232-69.038-9.289-100.881-24.481c-62.385-29.764-101.85-78.024-110.121-147.229
		c-9.066-75.86,8.651-144.917,63.677-200.958c33.73-34.354,75.771-53.064,122.958-60.545c22.28-3.532,44.78-5.508,67.174-1.576
		c53.506,9.393,90.347,46.671,100.158,100.715c3.353,18.464,4.985,37.085,1.521,55.663c-6.127,32.854-25.497,55.518-55.597,69.038
		c-27.3,12.261-56.204,15.086-85.629,11.777c-21.29-2.394-37.218-22.15-35.946-42.987c1.35-22.127,19.208-39.325,41.207-39.76
		c10.304-0.204,20.606-0.481,30.905-0.85c1.972-0.071,3.939-0.649,5.88-1.117c14.898-3.592,17.441-6.692,16.03-21.839
		c-0.752-8.072-1.944-16.25-4.228-24c-4.699-15.951-16.448-24.235-32.588-24.917c-27.862-1.176-54.849,3.402-79.948,16.169
		c-37.656,19.153-59.096,50.755-68.396,91.15c-5.235,22.741-7.104,45.827-2.755,68.952c6.648,35.355,27.331,60.019,59.213,75.716
		c24.499,12.061,50.77,16.908,77.778,18.22c46.474,2.258,91.548-4.103,133.772-24.489c65.72-31.731,102.317-84.517,109.795-156.898
		c4.968-48.093-1.008-95.217-18.069-140.539c-29.022-77.098-83.792-126.255-164.11-144.216
		c-106.669-23.854-205.012-2.375-294.403,60.11c-33.392,23.342-62.748,51.064-87.165,83.862
		c-13.965,18.759-40.436,22.562-59.281,8.797c-18.672-13.638-22.819-39.013-8.819-58.119
		c28.723-39.199,63.775-72.032,103.124-100.318c62.576-44.984,131.858-73.483,208.481-83.153
		C372.972,76.983,392.493,76.303,411.912,74.815z"/>
</g>
</svg>
